<svg width="12" height="14" viewBox="0 0 12 14" fill="none" xmlns="http://www.w3.org/2000/svg">
<path d="M1.625 13.1377C1.13281 13.1377 0.75 12.7549 0.75 12.2627C0.75 11.7979 1.13281 11.3877 1.625 11.3877H10.375C10.8398 11.3877 11.25 11.7979 11.25 12.2627C11.25 12.7549 10.8398 13.1377 10.375 13.1377H1.625ZM6.60156 9.3916C6.27344 9.74707 5.69922 9.74707 5.37109 9.3916L1.87109 5.8916C1.51562 5.56348 1.51562 4.98926 1.87109 4.66113C2.19922 4.30566 2.77344 4.30566 3.10156 4.66113L5.125 6.65723V1.7627C5.125 1.29785 5.50781 0.887695 6 0.887695C6.46484 0.887695 6.875 1.29785 6.875 1.7627V6.65723L8.87109 4.66113C9.19922 4.30566 9.77344 4.30566 10.1016 4.66113C10.457 4.98926 10.457 5.56348 10.1016 5.8916L6.60156 9.3916Z" fill="white"/>
</svg>
