<svg width="191" height="200" viewBox="0 0 191 200" fill="none" xmlns="http://www.w3.org/2000/svg">
<path d="M99.746 159.565V176.509M82.7819 168.037V176.509M65.8178 155.319V176.509M48.8537 142.622V176.509M31.8896 159.565V176.509M137.9 117.206V87.5448M120.936 117.206V70.6013M103.972 117.206V104.488M19.1511 104.488H40.3614M19.1511 87.5448H40.3614M19.1511 70.6013H40.3614M19.1511 53.6577H70.0434M19.1511 36.7141H87.0075M154.864 138.396L188.792 172.283M137.9 155.34V197.699H2.20752V2.8269H137.9V36.7141M171.828 96.0372C171.828 124.119 149.038 146.868 120.936 146.868C92.8332 146.868 70.0434 124.099 70.0434 96.0372C70.0434 67.9756 92.8332 45.2064 120.936 45.2064C149.038 45.2064 171.828 67.9756 171.828 96.0372Z" stroke="#FBB040" stroke-width="4" stroke-linecap="round" stroke-linejoin="round"/>
</svg>
