<svg width="195" height="201" viewBox="0 0 195 201" fill="none" xmlns="http://www.w3.org/2000/svg">
<path fill-rule="evenodd" clip-rule="evenodd" d="M153.203 131.682C153.203 130.759 153.952 130.011 154.875 130.011H167.688C169.891 130.011 171.435 131.764 171.775 133.59C172.383 136.858 174.468 140.791 179.64 141.568C181.511 141.85 183.287 143.396 183.287 145.609V161.208C183.287 163.422 181.511 164.968 179.64 165.249C174.468 166.027 172.383 169.96 171.775 173.228C171.435 175.054 169.891 176.807 167.688 176.807H154.875C153.952 176.807 153.203 176.059 153.203 175.136C153.203 174.213 153.952 173.465 154.875 173.465H167.688C167.83 173.465 167.987 173.41 168.144 173.264C168.308 173.11 168.44 172.879 168.489 172.617C169.239 168.582 172.015 163.016 179.143 161.944C179.394 161.906 179.611 161.787 179.755 161.637C179.891 161.495 179.944 161.348 179.944 161.208V145.609C179.944 145.47 179.891 145.323 179.755 145.18C179.611 145.031 179.394 144.912 179.143 144.874C172.015 143.802 169.239 138.236 168.489 134.201C168.44 133.939 168.308 133.708 168.144 133.554C167.987 133.407 167.83 133.353 167.688 133.353H154.875C153.952 133.353 153.203 132.605 153.203 131.682Z" fill="#FBB040"/>
<path fill-rule="evenodd" clip-rule="evenodd" d="M118.106 119.983C118.106 119.06 118.854 118.311 119.777 118.311H191.086C193.24 118.311 194.986 120.057 194.986 122.211V184.05C194.986 186.203 193.24 187.949 191.086 187.949H128.691C127.768 187.949 127.019 187.201 127.019 186.278C127.019 185.355 127.768 184.607 128.691 184.607H191.086C191.394 184.607 191.643 184.357 191.643 184.05V122.211C191.643 121.903 191.394 121.654 191.086 121.654H119.777C118.854 121.654 118.106 120.906 118.106 119.983Z" fill="#FBB040"/>
<path fill-rule="evenodd" clip-rule="evenodd" d="M127.029 131.507C127.125 130.589 127.948 129.923 128.866 130.02C132.627 130.416 138.224 132.003 142.924 135.526C147.686 139.094 151.532 144.667 151.532 152.852C151.532 161.032 147.691 166.69 142.946 170.37C138.257 174.008 132.669 175.741 128.909 176.236C127.994 176.356 127.154 175.712 127.034 174.797C126.913 173.882 127.558 173.042 128.473 172.922C131.769 172.488 136.766 170.934 140.898 167.729C144.974 164.567 148.189 159.825 148.189 152.852C148.189 145.883 144.979 141.243 140.92 138.2C136.799 135.112 131.811 133.691 128.516 133.344C127.598 133.247 126.932 132.425 127.029 131.507Z" fill="#FBB040"/>
<path fill-rule="evenodd" clip-rule="evenodd" d="M96.3788 1.3198C97.3019 1.3198 98.0501 2.06807 98.0501 2.99111V58.1443C98.0501 60.2981 96.3042 62.044 94.1504 62.044H79.9518C79.4801 62.044 79.2219 62.5937 79.523 62.9567L112.61 102.856C112.838 103.13 113.26 103.124 113.478 102.844L144.62 62.9439C144.905 62.5781 144.645 62.044 144.18 62.044H130.362C128.208 62.044 126.462 60.2981 126.462 58.1443V10.7906C126.462 9.86751 127.211 9.11924 128.134 9.11924C129.057 9.11924 129.805 9.86751 129.805 10.7906V58.1443C129.805 58.452 130.054 58.7014 130.362 58.7014H144.18C147.429 58.7014 149.253 62.4399 147.255 65.0005L116.114 104.9C114.581 106.863 111.627 106.907 110.037 104.99L76.95 65.0905C74.8422 62.5488 76.6499 58.7014 79.9518 58.7014H94.1504C94.4581 58.7014 94.7075 58.452 94.7075 58.1443V2.99111C94.7075 2.06807 95.4558 1.3198 96.3788 1.3198Z" fill="#FBB040"/>
<path fill-rule="evenodd" clip-rule="evenodd" d="M45.463 0.762695C46.386 0.762695 47.1343 1.51097 47.1343 2.434V29.5002C47.1343 31.6539 45.3883 33.3999 43.2346 33.3999H37.0268C36.5563 33.3999 36.2977 33.9471 36.5964 34.3107L55.3621 57.1517C55.5892 57.4282 56.0144 57.4219 56.2333 57.1389L73.8951 34.2978C74.1783 33.9316 73.9173 33.3999 73.4544 33.3999H67.4179C65.2642 33.3999 63.5182 31.6539 63.5182 29.5002V7.32447C63.5182 6.40143 64.2665 5.65316 65.1895 5.65316C66.1125 5.65316 66.8608 6.40143 66.8608 7.32447V29.5002C66.8608 29.8079 67.1102 30.0573 67.4179 30.0573H73.4544C76.6945 30.0573 78.5214 33.7793 76.5394 36.3425L58.8776 59.1836C57.3454 61.165 54.3693 61.2089 52.7794 59.2736L34.0136 36.4326C31.9228 33.8877 33.7332 30.0573 37.0268 30.0573H43.2346C43.5423 30.0573 43.7917 29.8079 43.7917 29.5002V2.434C43.7917 1.51097 44.5399 0.762695 45.463 0.762695Z" fill="#FBB040"/>
<path fill-rule="evenodd" clip-rule="evenodd" d="M65.1498 87.3117C66.5097 86.0358 66.8524 85.0258 66.8524 84.3281C66.8524 83.6305 66.5097 82.6205 65.1498 81.3446C63.7839 80.0632 61.6266 78.7552 58.6823 77.5868C52.8129 75.2577 44.4758 73.7432 35.0975 73.7432C25.7192 73.7432 17.3821 75.2577 11.5127 77.5868C8.56839 78.7552 6.41108 80.0632 5.0452 81.3446C3.68527 82.6205 3.34262 83.6305 3.34262 84.3281C3.34262 85.0258 3.68527 86.0358 5.0452 87.3117C6.41108 88.5931 8.56839 89.9011 11.5127 91.0695C17.3821 93.3986 25.7192 94.9131 35.0975 94.9131C44.4758 94.9131 52.8129 93.3986 58.6823 91.0695C61.6266 89.9011 63.7839 88.5931 65.1498 87.3117ZM35.0975 98.2557C54.4813 98.2557 70.195 92.0201 70.195 84.3281C70.195 76.6362 54.4813 70.4006 35.0975 70.4006C15.7137 70.4006 0 76.6362 0 84.3281C0 92.0201 15.7137 98.2557 35.0975 98.2557Z" fill="#FBB040"/>
<path fill-rule="evenodd" clip-rule="evenodd" d="M110.832 139.679C112.192 138.403 112.535 137.393 112.535 136.696C112.535 135.998 112.192 134.988 110.832 133.712C109.466 132.431 107.309 131.123 104.365 129.954C98.4953 127.625 90.1582 126.111 80.7799 126.111C71.4016 126.111 63.0645 127.625 57.1952 129.954C54.2508 131.123 52.0935 132.431 50.7276 133.712C49.3677 134.988 49.0251 135.998 49.0251 136.696C49.0251 137.393 49.3677 138.403 50.7276 139.679C52.0935 140.961 54.2508 142.269 57.1952 143.437C63.0645 145.766 71.4016 147.281 80.7799 147.281C90.1582 147.281 98.4953 145.766 104.365 143.437C107.309 142.269 109.466 140.961 110.832 139.679ZM80.7799 150.623C100.164 150.623 115.877 144.388 115.877 136.696C115.877 129.004 100.164 122.768 80.7799 122.768C61.3961 122.768 45.6824 129.004 45.6824 136.696C45.6824 144.388 61.3961 150.623 80.7799 150.623Z" fill="#FBB040"/>
<path d="M110.832 156.392C112.192 155.117 112.535 154.107 112.535 153.409H115.877C115.877 161.101 100.164 167.337 80.7799 167.337C61.3961 167.337 45.6824 161.101 45.6824 153.409H49.0251C49.0251 154.107 49.3677 155.117 50.7276 156.392C52.0935 157.674 54.2508 158.982 57.1952 160.15C63.0645 162.479 71.4016 163.994 80.7799 163.994C90.1582 163.994 98.4953 162.479 104.365 160.15C107.309 158.982 109.466 157.674 110.832 156.392Z" fill="#FBB040"/>
<path d="M110.832 173.106C112.192 171.83 112.535 170.82 112.535 170.122H115.877C115.877 177.814 100.164 184.05 80.7799 184.05C61.3961 184.05 45.6824 177.814 45.6824 170.122H49.0251C49.0251 170.82 49.3677 171.83 50.7276 173.106C52.0935 174.387 54.2508 175.695 57.1952 176.863C63.0645 179.192 71.4016 180.707 80.7799 180.707C90.1582 180.707 98.4953 179.192 104.365 176.863C107.309 175.695 109.466 174.387 110.832 173.106Z" fill="#FBB040"/>
<path d="M110.832 189.819C112.192 188.543 112.535 187.533 112.535 186.835H115.877C115.877 194.527 100.164 200.763 80.7799 200.763C61.3961 200.763 45.6824 194.527 45.6824 186.835H49.0251C49.0251 187.533 49.3677 188.543 50.7276 189.819C52.0935 191.1 54.2508 192.408 57.1952 193.576C63.0645 195.906 71.4016 197.42 80.7799 197.42C90.1582 197.42 98.4953 195.906 104.365 193.576C107.309 192.408 109.466 191.1 110.832 189.819Z" fill="#FBB040"/>
<path d="M65.1498 102.911C66.5097 101.635 66.8524 100.625 66.8524 99.927H70.195C70.195 107.619 54.4813 113.855 35.0975 113.855C15.7137 113.855 0 107.619 0 99.927H3.34262C3.34262 100.625 3.68527 101.635 5.0452 102.911C6.41108 104.192 8.56839 105.5 11.5127 106.668C17.3821 108.997 25.7192 110.512 35.0975 110.512C44.4758 110.512 52.8129 108.997 58.6823 106.668C61.6266 105.5 63.7839 104.192 65.1498 102.911Z" fill="#FBB040"/>
<path d="M3.85043 118.21C4.11226 118.636 4.49568 119.108 5.0452 119.624C6.41108 120.905 8.56839 122.213 11.5127 123.381C17.031 125.571 24.7306 127.041 33.426 127.209C34.3489 127.227 35.0975 127.973 35.0975 128.896C35.0975 129.819 34.3484 130.569 33.4255 130.552C16.2063 130.232 2.23209 124.987 0.242846 118.287C-0.0198659 117.402 0.748271 116.64 1.67131 116.64C2.59435 116.64 3.36684 117.424 3.85043 118.21Z" fill="#FBB040"/>
<path d="M3.85043 134.923C4.11226 135.349 4.49568 135.821 5.0452 136.337C6.41108 137.618 8.56839 138.926 11.5127 140.095C17.031 142.284 24.7306 143.754 33.426 143.922C34.3489 143.94 35.0975 144.686 35.0975 145.609C35.0975 146.533 34.3484 147.282 33.4255 147.265C16.2063 146.945 2.23209 141.7 0.242846 135C-0.0198659 134.115 0.748271 133.353 1.67131 133.353C2.59435 133.353 3.36684 134.137 3.85043 134.923Z" fill="#FBB040"/>
<path d="M3.85043 151.636C4.11226 152.062 4.49568 152.534 5.0452 153.05C6.41108 154.331 8.56839 155.639 11.5127 156.808C17.031 158.997 24.7306 160.467 33.426 160.635C34.3489 160.653 35.0975 161.4 35.0975 162.323C35.0975 163.246 34.3484 163.996 33.4255 163.978C16.2063 163.658 2.23209 158.413 0.242846 151.713C-0.0198659 150.828 0.748271 150.066 1.67131 150.066C2.59435 150.066 3.36684 150.85 3.85043 151.636Z" fill="#FBB040"/>
<path d="M3.85043 168.35C4.11226 168.775 4.49568 169.247 5.0452 169.763C6.41108 171.044 8.56839 172.352 11.5127 173.521C17.031 175.711 24.7306 177.18 33.426 177.348C34.3489 177.366 35.0975 178.113 35.0975 179.036C35.0975 179.959 34.3484 180.709 33.4255 180.691C16.2063 180.371 2.23209 175.127 0.242846 168.426C-0.0198659 167.542 0.748271 166.779 1.67131 166.779C2.59435 166.779 3.36684 167.563 3.85043 168.35Z" fill="#FBB040"/>
<path fill-rule="evenodd" clip-rule="evenodd" d="M66.8524 111.626V84.8853H70.195V111.626C70.195 112.549 69.4467 113.298 68.5237 113.298C67.6006 113.298 66.8524 112.549 66.8524 111.626Z" fill="#FBB040"/>
<path fill-rule="evenodd" clip-rule="evenodd" d="M0 167.337V84.8853H3.34262V167.337C3.34262 168.26 2.59435 169.008 1.67131 169.008C0.748271 169.008 0 168.26 0 167.337Z" fill="#FBB040"/>
<path fill-rule="evenodd" clip-rule="evenodd" d="M45.6824 187.392V136.139H49.0251V187.392H45.6824Z" fill="#FBB040"/>
<path fill-rule="evenodd" clip-rule="evenodd" d="M112.535 187.392V136.139H115.877V187.392H112.535Z" fill="#FBB040"/>
<path d="M182.73 132.239C182.73 133.162 181.982 133.91 181.058 133.91C180.135 133.91 179.387 133.162 179.387 132.239C179.387 131.316 180.135 130.568 181.058 130.568C181.982 130.568 182.73 131.316 182.73 132.239Z" fill="#FBB040"/>
<path d="M182.73 174.579C182.73 175.502 181.982 176.25 181.058 176.25C180.135 176.25 179.387 175.502 179.387 174.579C179.387 173.656 180.135 172.908 181.058 172.908C181.982 172.908 182.73 173.656 182.73 174.579Z" fill="#FBB040"/>
</svg>
